<svg id="Layer_1" data-name="Layer 1" xmlns="http://www.w3.org/2000/svg" viewBox="0 0 160 160"><defs><style>.cls-1,.cls-2{stroke:#000;stroke-miterlimit:10;}.cls-2{fill:none;}</style></defs><path class="cls-1" d="M139.38,45.17c-11.67,0-35,71.69-50,71.69S72.7,45.17,57.69,45.17,26,116.86,6,116.86V130.2c18.34,0,40-73.36,51.68-73.36,10,0,16.67,73.36,30,73.36s43.35-75,51.68-75Z"/><polygon class="cls-2" points="138.55 46.01 156.89 31 156.89 36 138.55 54.34 138.55 46.01"/><path class="cls-2" d="M54.55,46.17S77.7,28.5,82.7,28.5c15,0,13.34,63.35,21.67,63.35s21.68-26.67,21.68-26.67"/><path class="cls-2" d="M10.18,129.37S36,108.53,41.18,101c4.26-6.18,20.7-39.95,20.7-39.95"/><path class="cls-2" d="M89.37,130.2s21.67-20,26.67-26.68c3.17-4.21,25-51.71,25-51.71"/></svg>