<svg id="Layer_1" data-name="Layer 1" xmlns="http://www.w3.org/2000/svg" viewBox="0 0 160 160"><defs><style>.cls-1{fill:gray;}.cls-2{fill:#fff;}.cls-3,.cls-4{stroke:#000;stroke-miterlimit:10;}.cls-4{fill:none;}</style></defs><rect class="cls-1" x="20" y="20" width="120" height="120" rx="16.05"/><rect class="cls-2" x="20" y="20" width="120" height="120" rx="16.05"/><path class="cls-3" d="M115.91,53.73c-7,0-21,43-30,43s-10-43-19-43-19,43-31,43v8c11,0,24-44,31-44,6,0,10,44,18,44s26-45,31-45Z"/><polygon class="cls-4" points="115.41 54.23 126.41 45.23 126.41 48.23 115.41 59.23 115.41 54.23"/><path class="cls-4" d="M65,54.32S78.91,43.73,81.91,43.73c9,0,8,38,13,38s13-16,13-16"/><path class="cls-4" d="M38.41,104.23s15.5-12.5,18.6-17c2.55-3.71,12.41-24,12.41-24"/><path class="cls-4" d="M85.91,104.73s13-12,16-16c1.89-2.53,15-31,15-31"/></svg>