<svg id="Layer_1" data-name="Layer 1" xmlns="http://www.w3.org/2000/svg" viewBox="0 0 100 100"><defs><style>.cls-1{fill:gray;}.cls-1,.cls-2{stroke:gray;stroke-miterlimit:10;}.cls-2{fill:none;}</style></defs><title>3Dstructure</title><path class="cls-1" d="M86.39,29.75c-7,0-21,43-30,43s-10-43-19-43-19,43-31,43v8c11,0,24-44,31-44,6,0,10,44,18,44s26-45,31-45Z"/><polygon class="cls-1" points="85.89 30.25 96.89 21.25 96.89 24.25 85.89 35.25 85.89 30.25"/><path class="cls-2" d="M35.51,30.35s13.88-10.6,16.88-10.6c9,0,8,38,13,38s13-16,13-16"/><path class="cls-2" d="M8.89,80.25s15.5-12.5,18.6-17c2.56-3.71,12.42-24,12.42-24"/><path class="cls-2" d="M56.39,80.75s13-12,16-16c1.9-2.53,15-31,15-31"/></svg>