<svg id="Layer_1" data-name="Layer 1" xmlns="http://www.w3.org/2000/svg" xmlns:xlink="http://www.w3.org/1999/xlink" viewBox="0 0 160 160"><defs><style>.cls-1,.cls-6,.cls-7{fill:none;}.cls-2{clip-path:url(#clip-path);}.cls-3{fill:#686868;}.cls-4{fill:#f2f2f2;stroke:#f2f2f2;}.cls-4,.cls-6,.cls-7{stroke-miterlimit:10;}.cls-5{clip-path:url(#clip-path-2);}.cls-6,.cls-7{stroke:#686868;}.cls-7{stroke-width:2px;}</style><clipPath id="clip-path"><rect class="cls-1" x="19.5" y="19.55" width="120.77" height="120.77" rx="16"/></clipPath><clipPath id="clip-path-2"><rect class="cls-1" x="202.33" y="19.55" width="120.77" height="120.77" rx="16"/></clipPath></defs><g class="cls-2"><path class="cls-3" d="M19.06,19.1H127.62a12.65,12.65,0,0,1,12.65,12.65V140.32a0,0,0,0,1,0,0H19.06a0,0,0,0,1,0,0V19.1A0,0,0,0,1,19.06,19.1Z"/><rect class="cls-4" x="28" y="86.26" width="88.23" height="9.99"/><rect class="cls-4" x="28" y="100.69" width="62.71" height="6.66"/><path class="cls-4" d="M131.21,56.3V81.83H28V54.33s1.11,3.33,11.1,3.33,25.52-5.55,30-5.55,17.76,4.44,27.75,4.44,23.31-4.44,28.85-4.44,5.55,2.22,5.55,2.22Z"/></g><g class="cls-5"><path class="cls-6" d="M142.37,73.61s12.76-1.06,38.85-8.06c23.64-6.34,29.89-19.39,29.89-19.39"/><path class="cls-7" d="M156.21,80.43s12.76-1.07,38.84-8.07C218.69,66,225,53,225,53"/></g></svg>