<svg id="Layer_1" data-name="Layer 1" xmlns="http://www.w3.org/2000/svg" xmlns:xlink="http://www.w3.org/1999/xlink" viewBox="0 0 160 160"><defs><style>.cls-1{fill:none;}.cls-2{clip-path:url(#clip-path);}.cls-3{fill:#f2f2f2;stroke:#f2f2f2;stroke-miterlimit:10;}.cls-4{fill:#686868;}</style><clipPath id="clip-path"><rect class="cls-1" x="20.11" y="19.55" width="120.77" height="120.77" rx="16"/></clipPath></defs><g class="cls-2"><rect class="cls-3" x="19.67" y="19.1" width="121.21" height="121.21"/><path class="cls-4" d="M45.64,36.24s21.6-3.93,25.52,4.91S86.87,59.8,80,64.71,55.45,78.46,54.47,81.4s-13.74,4.91-19.63-2-9.82-14.73-3-22.58,2-14.73,3.93-17.68S45.64,36.24,45.64,36.24Z"/><path class="cls-4" d="M46.65,32.36S33.34,49.83,24.49,46,.31,42.76,2.07,34.5,10.93,7.8,9.67,5,16.52-7.93,25.5-6.83,42.68-2.57,42.9,7.87s8.48,12.2,9,15.7S46.65,32.36,46.65,32.36Z"/><path class="cls-4" d="M98.27,140.32s-12.38-10.8-7.47-20.62,23.57-19.64,31.42-16.7,18.36,22.94,18.36,22.94,9.14,16.34,2.26,24.2S98.27,140.32,98.27,140.32Z"/><path class="cls-4" d="M19.72,163.88s-12.38-10.8-7.47-20.62,23.57-19.64,31.42-16.69S62,149.5,62,149.5s9.13,16.35,2.26,24.2S19.72,163.88,19.72,163.88Z"/><path class="cls-4" d="M153.46,19.47s13.75,9,10.25,19.38S143.09,61.56,134.9,59.74s-21.36-20.17-21.36-20.17S102.23,24.65,108,15.92,153.46,19.47,153.46,19.47Z"/><path class="cls-4" d="M95.71,44.09s-12.53,7-13.63,16.26,2.83,12.22,5.78,16.14,6.87,19.64,18.65,14.73S143.82,77.48,135,63.73,102.59,39.18,95.71,44.09Z"/><path class="cls-4" d="M87.71-4.6S73.48-6.4,67.1.42s-5,11.51-4.92,16.42-6.11,19.89,6.29,22.92,38.2,11.05,39.23-5.26S96.16-4.48,87.71-4.6Z"/><path class="cls-4" d="M26,99.08c0-7.08,2-13.6,22.6-15.15S90.62,86,100,92s4.36,13.65-7.35,24.58-40.18,23.7-47,9.95S26,107.91,26,99.08Z"/><path class="cls-4" d="M9.31,96.13s12.76-9.82,16.69,3,14,22.85,5.05,29.1-11.92,16.06-22.73,9.19S9.31,96.13,9.31,96.13Z"/><path class="cls-4" d="M14.22,44.09s14.23,7.82,14,21.09-8.1,27-17.92,24.08S14.22,44.09,14.22,44.09Z"/><path class="cls-4" d="M147.75,68.64c-.91-.35-8.13-1.56-13.88,7.56s-10.05,27.3-1.52,36.87,29.15,14.48,38,1.72S160.52,73.55,147.75,68.64Z"/></g></svg>