<svg id="Layer_1" data-name="Layer 1" xmlns="http://www.w3.org/2000/svg" xmlns:xlink="http://www.w3.org/1999/xlink" viewBox="0 0 160 160"><defs><style>.cls-1,.cls-4{fill:none;}.cls-2{clip-path:url(#clip-path);}.cls-3{fill:#231f20;}.cls-4{stroke:#231f20;stroke-linecap:round;stroke-miterlimit:10;stroke-width:2px;}</style><clipPath id="clip-path"><rect class="cls-1" x="28.5" y="37.44" width="104" height="93.12" rx="11.87"/></clipPath></defs><g class="cls-2"><path class="cls-3" d="M141.61,14.51l0-.18,27.52-5.91.1.39c-20.91,5.09-28.54,16.68-32,22.42a37.12,37.12,0,0,1-20,16.15L86.66,54a37.25,37.25,0,0,0,21.53-16.68C111.71,31.42,119.61,19.42,141.61,14.51Z"/><path class="cls-3" d="M141.61,42.33l0-.18,27.52-5.92.1.39c-20.91,5.09-28.54,16.69-32,22.42a37.08,37.08,0,0,1-20,16.16L86.66,81.76a37.25,37.25,0,0,0,21.53-16.67C111.71,59.23,119.61,47.24,141.61,42.33Z"/><path class="cls-3" d="M141.61,70.14l0-.18,27.52-5.91.1.38c-20.91,5.09-28.54,16.69-32,22.42a37.08,37.08,0,0,1-20,16.16l-30.59,6.57A37.25,37.25,0,0,0,108.19,92.9C111.71,87.05,119.61,75.05,141.61,70.14Z"/><path class="cls-3" d="M112.92,104.5l0-.18c1.55-.39,3-.83,4.38-1.31l24.32-5.24,0,.19c-22,4.91-29.9,16.9-33.42,22.75a37.22,37.22,0,0,1-21.53,16.68h0l-24.08,5.18a36.93,36.93,0,0,0,19.06-15.82C85,121.09,92.5,109.67,112.92,104.5Z"/><path class="cls-3" d="M83.9,54.92l-.05-.19c1-.24,1.87-.49,2.76-.77h0l30.59-6.57c-1.38.49-2.83.92-4.38,1.31l0,.18C92.5,54.05,85,65.46,81.59,71.13A36.93,36.93,0,0,1,62.53,87L32.25,93.46A37.14,37.14,0,0,0,52.57,77.18C56,71.51,63.47,60.09,83.9,54.92Z"/><path class="cls-3" d="M83.9,82.73l-.05-.18c1-.24,1.87-.5,2.76-.78h0l30.59-6.56c-1.38.48-2.83.92-4.38,1.3l0,.18C92.5,81.86,85,93.28,81.59,99a36.92,36.92,0,0,1-19.06,15.81l-30.28,6.51A37.1,37.1,0,0,0,52.57,105C56,99.32,63.47,87.91,83.9,82.73Z"/><path class="cls-3" d="M86,26.61l-.06-.31,29-6.24.11.5C93,25.47,85.11,37.47,81.59,43.32A36.93,36.93,0,0,1,62.53,59.14l-30.28,6.5A37.13,37.13,0,0,0,52.57,49.37C56.08,43.51,64,31.52,86,26.61Z"/><path class="cls-3" d="M83.85,110.36l.05.18c-20.43,5.18-27.94,16.6-31.33,22.27a37.13,37.13,0,0,1-20.32,16.27l0,0L4.86,155a37,37,0,0,0,19.89-16.12c3.57-5.95,11.66-18.22,34.45-23,1.17-.34,2.28-.7,3.33-1.12l24.08-5.17C85.72,109.87,84.81,110.12,83.85,110.36Z"/><path class="cls-3" d="M30.18,66.3c.69-.2,1.37-.42,2-.65h0l30.28-6.5c-1.05.41-2.16.77-3.33,1.11-22.79,4.75-30.88,17-34.45,23A37,37,0,0,1,4.86,99.35l-27,5.81-.11-.48a37,37,0,0,0,18-15.41C-.7,83.32,7.39,71.05,30.18,66.3Z"/><path class="cls-3" d="M30.18,94.11c.69-.19,1.37-.41,2-.64h0L62.53,87c-1.05.41-2.16.77-3.33,1.11-22.79,4.76-30.88,17-34.45,23A37,37,0,0,1,4.86,127.16l-27,5.82-.11-.49a37,37,0,0,0,18-15.4C-.7,111.14,7.39,98.86,30.18,94.11Z"/><path class="cls-3" d="M29.14,38.7l0-.19,29-6.23.08.37c-22,4.91-29.89,16.91-33.41,22.76A37,37,0,0,1,4.86,71.53l-27,5.82-.11-.48a37,37,0,0,0,18-15.41C-.75,55.61,7.14,43.61,29.14,38.7Z"/><polyline class="cls-4" points="86.66 109.58 117.25 103.01 141.57 97.77 169.09 91.86"/><polyline class="cls-4" points="32.25 121.27 62.53 114.77 86.61 109.59"/><polyline class="cls-4" points="-22.18 132.98 -22.16 132.98 4.86 127.16 32.2 121.28"/><polyline class="cls-4" points="86.66 137.39 117.25 130.82 169.09 119.67"/><polyline class="cls-4" points="32.25 149.09 62.53 142.58 86.61 137.4"/><polyline class="cls-4" points="-22.18 160.79 -22.16 160.79 4.86 154.97 32.2 149.1"/><polyline class="cls-4" points="86.66 81.76 117.25 75.2 141.57 69.96 169.09 64.05"/><polyline class="cls-4" points="32.25 93.46 62.53 86.95 86.61 81.78"/><polyline class="cls-4" points="-22.18 105.16 -22.16 105.16 4.86 99.35 32.2 93.47"/><polyline class="cls-4" points="140.97 42.28 141.57 42.15 169.09 36.23"/><polyline class="cls-4" points="-22.18 77.35 -22.16 77.35 4.86 71.53 11.57 70.09"/><polyline class="cls-4" points="-22.18 49.53 29.11 38.51 58.08 32.28 85.92 26.3 114.89 20.06 141.57 14.33 169.09 8.42"/><polyline class="cls-4" points="86.66 53.95 117.25 47.38 140.97 42.28"/><polyline class="cls-4" points="32.25 65.64 62.53 59.14 86.61 53.96"/><line class="cls-4" x1="11.57" y1="70.09" x2="32.2" y2="65.65"/><path class="cls-4" d="M-.69,100.94a45.43,45.43,0,0,0,5.55-1.59A37,37,0,0,0,24.75,83.23c3.57-6,11.66-18.23,34.45-23,.38-.1.75-.17,1.14-.24"/><path class="cls-4" d="M-29.72,107a46,46,0,0,0,7.45-2.31,37,37,0,0,0,18-15.41c3.57-6,11.66-18.22,34.45-23,.38-.1.75-.17,1.14-.25"/><path class="cls-4" d="M56.14,88.85c1.07-.23,2.08-.5,3.06-.79,1.17-.34,2.28-.7,3.33-1.11A36.93,36.93,0,0,0,81.59,71.13C85,65.46,92.5,54.05,112.92,48.87q2-.52,4.26-1"/><path class="cls-4" d="M27.12,94.9c1.07-.23,2.08-.5,3.06-.79.69-.19,1.37-.41,2-.64h0A37.14,37.14,0,0,0,52.57,77.18C56,71.51,63.47,60.09,83.9,54.92c1.35-.35,2.78-.67,4.25-1"/><path class="cls-4" d="M111.77,76.76l1.1-.26c1.55-.38,3-.82,4.38-1.3a37.08,37.08,0,0,0,20-16.16c3.43-5.73,11.06-17.33,32-22.42,1.16-.29,2.37-.56,3.62-.8"/><path class="cls-4" d="M82.75,82.8l1.1-.25c1-.24,1.87-.5,2.76-.78h0a37.25,37.25,0,0,0,21.53-16.67c3.52-5.86,11.42-17.85,33.42-22.76.71-.17,1.44-.32,2.17-.46"/><path class="cls-4" d="M-.69,128.76a45.41,45.41,0,0,0,5.55-1.6A37,37,0,0,0,24.75,111c3.57-6,11.66-18.22,34.45-23,.38-.09.75-.17,1.14-.24"/><path class="cls-4" d="M-29.72,134.8a45,45,0,0,0,7.45-2.31,37,37,0,0,0,18-15.4c3.57-6,11.66-18.23,34.45-23,.38-.1.75-.17,1.14-.24"/><path class="cls-4" d="M56.14,116.66c1.07-.23,2.08-.49,3.06-.78,1.17-.34,2.28-.7,3.33-1.12A36.92,36.92,0,0,0,81.59,99C85,93.28,92.5,81.86,112.92,76.68c1.36-.35,2.78-.66,4.26-1"/><path class="cls-4" d="M27.12,122.71c1.07-.23,2.08-.5,3.06-.79.69-.19,1.37-.41,2-.64h0A37.1,37.1,0,0,0,52.57,105C56,99.32,63.47,87.91,83.9,82.73c1.35-.35,2.78-.66,4.25-1"/><path class="cls-4" d="M111.77,104.57l1.1-.25c1.55-.39,3-.83,4.38-1.31a37.08,37.08,0,0,0,20-16.16c3.43-5.73,11.06-17.33,32-22.42,1.16-.29,2.37-.55,3.62-.79"/><path class="cls-4" d="M82.75,110.62l1.1-.26c1-.24,1.87-.49,2.76-.77h0A37.25,37.25,0,0,0,108.19,92.9c3.52-5.85,11.42-17.85,33.42-22.76.71-.17,1.44-.31,2.17-.46"/><path class="cls-4" d="M-.69,73.13a45.41,45.41,0,0,0,5.55-1.6A37,37,0,0,0,24.75,55.41c3.52-5.85,11.42-17.85,33.41-22.76.72-.17,1.44-.31,2.18-.46"/><path class="cls-4" d="M-29.72,79.17a46,46,0,0,0,7.45-2.3,37,37,0,0,0,18-15.41C-.75,55.61,7.14,43.61,29.14,38.7c.71-.17,1.44-.31,2.18-.46"/><path class="cls-4" d="M56.14,61c1.07-.23,2.08-.5,3.06-.79,1.17-.34,2.28-.7,3.33-1.11A36.93,36.93,0,0,0,81.59,43.32C85.11,37.47,93,25.47,115,20.56c.71-.17,1.44-.31,2.18-.46"/><path class="cls-4" d="M27.12,67.08c1.07-.23,2.08-.49,3.06-.78.69-.2,1.37-.42,2-.65h0A37.13,37.13,0,0,0,52.57,49.37C56.08,43.51,64,31.52,86,26.61c.71-.17,1.44-.32,2.17-.46"/><path class="cls-4" d="M111.77,48.94l1.1-.25c1.55-.39,3-.82,4.38-1.31a37.12,37.12,0,0,0,20-16.15c3.43-5.74,11.06-17.33,32-22.42,1.16-.29,2.37-.56,3.62-.8"/><path class="cls-4" d="M82.75,55l1.1-.26c1-.24,1.87-.49,2.76-.77h0a37.25,37.25,0,0,0,21.53-16.68c3.52-5.85,11.42-17.85,33.42-22.76.71-.17,1.44-.31,2.17-.46"/><path class="cls-4" d="M-.69,156.57A45.41,45.41,0,0,0,4.86,155a37,37,0,0,0,19.89-16.12c3.57-5.95,11.66-18.22,34.45-23,.38-.1.75-.17,1.14-.24"/><path class="cls-4" d="M-29.72,162.62a46,46,0,0,0,7.45-2.31,37,37,0,0,0,18-15.41c3.57-6,11.66-18.22,34.45-23,.38-.09.75-.17,1.14-.24"/><path class="cls-4" d="M56.14,144.48a44.55,44.55,0,0,0,6.39-1.9,36.93,36.93,0,0,0,19.06-15.82c3.4-5.67,10.91-17.09,31.33-22.26q2-.52,4.26-1"/><path class="cls-4" d="M27.12,150.52a45.54,45.54,0,0,0,5.08-1.42l0,0a37.13,37.13,0,0,0,20.32-16.27c3.39-5.67,10.9-17.09,31.33-22.27,1.35-.35,2.78-.66,4.25-1"/><path class="cls-4" d="M111.77,132.38a43.82,43.82,0,0,0,5.48-1.56,37.12,37.12,0,0,0,20-16.15c3.43-5.73,11.06-17.33,32-22.42,1.16-.29,2.37-.56,3.62-.8"/><path class="cls-4" d="M82.75,138.43c1.34-.3,2.64-.64,3.86-1h0a37.22,37.22,0,0,0,21.53-16.68c3.52-5.85,11.42-17.84,33.42-22.75.71-.17,1.44-.32,2.17-.46"/></g></svg>