<svg id="Layer_1" data-name="Layer 1" xmlns="http://www.w3.org/2000/svg" xmlns:xlink="http://www.w3.org/1999/xlink" viewBox="0 0 160 160"><defs><style>.cls-1{fill:none;}.cls-2{clip-path:url(#clip-path);}.cls-3{fill:#686868;}.cls-4{fill:#f2f2f2;}</style><clipPath id="clip-path"><rect class="cls-1" x="20.01" y="19.55" width="120.77" height="120.77" rx="16"/></clipPath></defs><g class="cls-2"><rect class="cls-3" x="19.57" y="19.1" width="121.21" height="121.21"/></g><path class="cls-4" d="M111.68,58.58s25.1,8,21.68,18.26-14.84,24-18.26,25.11S93.42,90.54,93.42,90.54s9.13-5.71,11.41-13.7,0-22.82,0-22.82Z"/><path class="cls-4" d="M107.11,68.85s-26.25-4.56-43.37,0S28.37,88.26,28.37,88.26,60.28,71.84,69.45,71.14c14.84-1.14,37.66,2.28,37.66,2.28Z"/><rect class="cls-3" x="110.53" y="71.14" width="7.99" height="7.99" rx="3.99"/><path class="cls-4" d="M99.12,66.57S96.84,56.3,90,49.45,72.87,39.18,72.87,39.18s14.84,8,17.12,13.7,5.71,16,5.71,16Z"/><path class="cls-4" d="M87.71,67.71s-2.28-10.27-9.13-17.12S61.46,40.32,61.46,40.32s14.84,8,17.12,13.7,5.71,16,5.71,16Z"/><path class="cls-4" d="M77.44,68.11S75.55,59.63,69.9,54s-14.14-8.49-14.14-8.49S68,52.08,69.9,56.8,74.61,70,74.61,70Z"/><path class="cls-4" d="M66,70.89s-1.39-6.25-5.56-10.42a30.44,30.44,0,0,0-10.42-6.25s9,4.86,10.42,8.33,3.47,9.73,3.47,9.73Z"/><path class="cls-4" d="M54.61,74.74a16.67,16.67,0,0,0-3.86-7.25,21.19,21.19,0,0,0-7.24-4.34s6.28,3.38,7.24,5.79,2.42,6.76,2.42,6.76Z"/><path class="cls-4" d="M96.84,70S91.13,86,85.43,90.54s-16,9.13-16,9.13,14.84-8,18.26-13.7,5.71-16,5.71-16Z"/><path class="cls-4" d="M87.71,68.85S82,84.83,76.3,89.4s-16,9.13-16,9.13,14.84-8,18.26-13.7,5.71-16,5.71-16Z"/><path class="cls-4" d="M77.44,68.85s-3.8,10.66-7.61,13.7-10.65,6.09-10.65,6.09,9.89-5.33,12.17-9.13,3.81-10.66,3.81-10.66Z"/><path class="cls-4" d="M67.17,70S64.1,78.6,61,81.06A49.46,49.46,0,0,1,52.42,86s8-4.3,9.83-7.37S65.32,70,65.32,70Z"/></svg>