<svg id="Layer_1" data-name="Layer 1" xmlns="http://www.w3.org/2000/svg" viewBox="0 0 101 101"><defs><style>.cls-1{fill:#1e90ff;}.cls-2,.cls-3{fill:#f2f2f2;}.cls-3{stroke:#f2f2f2;stroke-miterlimit:10;stroke-width:2px;}</style></defs><circle class="cls-1" cx="50.5" cy="50.5" r="50.5"/><rect class="cls-2" x="29" y="24" width="55" height="54"/><rect class="cls-1" x="32" y="26.95" width="49" height="48.11"/><polygon class="cls-3" points="31 74 46.37 57.23 54 63 42 76 31 76 31 74"/><polygon class="cls-3" points="82 60 70.54 50.89 51.26 72.58 48 76 82 76 82 60"/><circle class="cls-2" cx="60" cy="46" r="5"/><polygon class="cls-1" points="22.94 27.19 6.71 36.5 8.18 45.8 18.95 50.7 17.48 63.43 27.27 71.26 44.94 49.19 32.25 44.33 44.94 31.19 25.94 34.19 22.94 27.19"/><polygon class="cls-2" points="21.56 30.84 9.71 38.61 10.94 46.37 19.92 50.46 18.7 61.08 26.87 67.61 39.94 50.86 27.69 45.15 37.9 34.52 24.42 36.97 21.56 30.84"/></svg>