<svg id="Layer_1" data-name="Layer 1" xmlns="http://www.w3.org/2000/svg" viewBox="0 0 101 101"><defs><style>.cls-1{fill:#1e90ff;}.cls-2,.cls-3{fill:#f2f2f2;}.cls-3{stroke:#f2f2f2;stroke-miterlimit:10;stroke-width:2px;}</style></defs><circle class="cls-1" cx="50.5" cy="50.5" r="50.5"/><rect class="cls-2" x="29" y="24" width="55" height="54"/><rect class="cls-1" x="32" y="26.95" width="49" height="48.11"/><path class="cls-1" d="M26.62,29.33A14.61,14.61,0,0,1,41.46,43.7c0,7.94-14.84,29.3-14.84,29.3S11.79,51.64,11.79,43.7A14.6,14.6,0,0,1,26.62,29.33Z"/><path class="cls-2" d="M26.62,31.68A12.38,12.38,0,0,1,39,44.06c0,6.83-12.38,25.23-12.38,25.23S14.24,50.89,14.24,44.06A12.38,12.38,0,0,1,26.62,31.68Zm5.24,12.38a5.24,5.24,0,1,0-5.24,5.24A5.25,5.25,0,0,0,31.86,44.06Z"/><circle class="cls-1" cx="26.62" cy="44.06" r="5.24"/><path class="cls-1" d="M25.62,28.53A15.14,15.14,0,0,1,41,43.43C41,51.66,25.62,73.8,25.62,73.8S10.24,51.66,10.24,43.43A15.15,15.15,0,0,1,25.62,28.53Z"/><path class="cls-2" d="M25.62,31.68A12.38,12.38,0,0,1,38,44.06c0,6.83-12.38,25.23-12.38,25.23S13.24,50.89,13.24,44.06A12.38,12.38,0,0,1,25.62,31.68Zm5.24,12.38a5.24,5.24,0,1,0-5.24,5.24A5.25,5.25,0,0,0,30.86,44.06Z"/><circle class="cls-1" cx="25.62" cy="44.06" r="5.24"/><polygon class="cls-3" points="31 74 46.37 57.23 54 63 42 76 31 76 31 74"/><polygon class="cls-3" points="82 60 70.54 50.89 51.26 72.58 48 76 82 76 82 60"/><circle class="cls-2" cx="60" cy="46" r="5"/></svg>