<svg id="Layer_1" data-name="Layer 1" xmlns="http://www.w3.org/2000/svg" xmlns:xlink="http://www.w3.org/1999/xlink" viewBox="0 0 160 160"><defs><style>.cls-1,.cls-8{fill:none;}.cls-2{clip-path:url(#clip-path);}.cls-3,.cls-5{fill:#f2f2f2;}.cls-3,.cls-8{stroke:#f2f2f2;stroke-miterlimit:10;}.cls-4{fill:#1e90ff;}.cls-6{clip-path:url(#clip-path-2);}.cls-7{fill:#686868;}.cls-8{stroke-width:2px;}.cls-9{clip-path:url(#clip-path-3);}.cls-10{clip-path:url(#clip-path-4);}</style><clipPath id="clip-path"><rect class="cls-1" x="19.6" y="19.55" width="120.77" height="120.77" rx="16.05"/></clipPath><clipPath id="clip-path-2"><rect class="cls-1" x="82.07" y="82.02" width="71.43" height="71.43"/></clipPath><clipPath id="clip-path-3"><rect class="cls-1" x="82.07" y="0.5" width="77.35" height="77.35"/></clipPath><clipPath id="clip-path-4"><rect class="cls-1" x="-0.6" y="82" width="78.5" height="78.5"/></clipPath></defs><g class="cls-2"><rect class="cls-3" x="19.5" y="19.5" width="121" height="121"/><rect class="cls-4" x="0.56" y="0.5" width="77.35" height="77.35"/><circle class="cls-5" cx="25.66" cy="30.8" r="2.6"/><circle class="cls-5" cx="33.75" cy="34.89" r="2.6"/><circle class="cls-5" cx="43.27" cy="26.23" r="2.6"/><circle class="cls-5" cx="53.22" cy="30.58" r="2.6"/><circle class="cls-5" cx="62.31" cy="39.67" r="2.6"/><circle class="cls-5" cx="71.83" cy="35.75" r="2.6"/><circle class="cls-5" cx="16.76" cy="37.65" r="2.6"/><circle class="cls-5" cx="25.85" cy="46.74" r="2.6"/><circle class="cls-5" cx="46.43" cy="38.09" r="2.6"/><circle class="cls-5" cx="8.46" cy="60.17" r="2.6"/><circle class="cls-5" cx="27.94" cy="60.6" r="2.6"/><circle class="cls-5" cx="17.98" cy="69.69" r="2.6"/><circle class="cls-5" cx="53.22" cy="48.76" r="2.6"/><circle class="cls-5" cx="45.32" cy="47.17" r="2.6"/><circle class="cls-5" cx="57.57" cy="61" r="2.6"/><circle class="cls-5" cx="67.09" cy="52.35" r="2.6"/><circle class="cls-5" cx="67.05" cy="59.42" r="2.6"/><circle class="cls-5" cx="74.57" cy="49.77" r="2.6"/><circle class="cls-5" cx="16.76" cy="55.83" r="2.6"/><circle class="cls-5" cx="33.75" cy="71.24" r="2.6"/><circle class="cls-5" cx="43.27" cy="62.58" r="2.6"/><circle class="cls-5" cx="53.22" cy="70.81" r="2.6"/><circle class="cls-5" cx="71.83" cy="71.24" r="2.6"/><circle class="cls-5" cx="35.49" cy="52.28" r="2.6"/><circle class="cls-5" cx="53.22" cy="17.14" r="2.6"/><circle class="cls-5" cx="45.32" cy="15.56" r="2.6"/><circle class="cls-5" cx="62.31" cy="26.23" r="2.6"/><circle class="cls-5" cx="71.79" cy="23.07" r="2.6"/><circle class="cls-5" cx="63.93" cy="17.57" r="2.6"/><circle class="cls-5" cx="16" cy="17.14" r="2.6"/><circle class="cls-5" cx="33.03" cy="23.89" r="2.6"/><g class="cls-6"><rect class="cls-7" x="82.07" y="82.02" width="71.43" height="71.43"/><rect class="cls-4" x="82.07" y="82.02" width="71.43" height="71.43"/><line class="cls-8" x1="85.27" y1="89.48" x2="110.86" y2="89.48"/><line class="cls-8" x1="121.52" y1="89.48" x2="147.1" y2="89.48"/><line class="cls-8" x1="111.92" y1="101.21" x2="137.51" y2="101.21"/><line class="cls-8" x1="84.21" y1="100.14" x2="109.79" y2="100.14"/><line class="cls-8" x1="84.21" y1="112.93" x2="109.79" y2="112.93"/><line class="cls-8" x1="115.12" y1="112.93" x2="140.71" y2="112.93"/><line class="cls-8" x1="143.91" y1="112.93" x2="169.49" y2="112.93"/><line class="cls-8" x1="73.54" y1="125.72" x2="99.13" y2="125.72"/><line class="cls-8" x1="103.39" y1="125.72" x2="128.98" y2="125.72"/><line class="cls-8" x1="132.18" y1="131.06" x2="157.76" y2="131.06"/><line class="cls-8" x1="114.06" y1="136.39" x2="139.64" y2="136.39"/><line class="cls-8" x1="81.01" y1="136.39" x2="106.59" y2="136.39"/><line class="cls-8" x1="92.73" y1="145.98" x2="118.32" y2="145.98"/><line class="cls-8" x1="125.78" y1="145.98" x2="151.37" y2="145.98"/></g><g class="cls-9"><rect class="cls-4" x="82.07" y="0.5" width="77.35" height="77.35"/><line class="cls-8" x1="82.07" y1="10.77" x2="159.42" y2="10.77"/><line class="cls-8" x1="82.07" y1="28.21" x2="159.42" y2="28.21"/><line class="cls-8" x1="82.07" y1="45.52" x2="159.42" y2="45.52"/><line class="cls-8" x1="82.07" y1="62.84" x2="159.42" y2="62.84"/><line class="cls-8" x1="105.26" y1="10.77" x2="93.79" y2="28.21"/><line class="cls-8" x1="142.2" y1="10.77" x2="130.73" y2="28.21"/><line class="cls-8" x1="132.97" y1="-7.7" x2="121.5" y2="9.74"/><line class="cls-8" x1="94.87" y1="-7.7" x2="83.4" y2="9.74"/><line class="cls-8" x1="169.91" y1="-7.7" x2="158.44" y2="9.74"/><line class="cls-8" x1="116.81" y1="28.09" x2="105.34" y2="45.52"/><line class="cls-8" x1="152.59" y1="28.09" x2="141.12" y2="45.52"/><line class="cls-8" x1="85.64" y1="45.4" x2="78.21" y2="55.91"/><line class="cls-8" x1="162.98" y1="45.4" x2="151.51" y2="62.84"/><line class="cls-8" x1="121.42" y1="45.4" x2="109.95" y2="62.84"/><line class="cls-8" x1="96.03" y1="62.72" x2="84.56" y2="80.15"/><line class="cls-8" x1="131.81" y1="62.72" x2="120.34" y2="80.15"/><line class="cls-8" x1="165.29" y1="62.72" x2="153.82" y2="80.15"/></g><g class="cls-10"><rect class="cls-4" x="-0.6" y="80.69" width="78.5" height="78.5"/><line class="cls-8" x1="-0.6" y1="92.42" x2="77.9" y2="92.42"/><line class="cls-8" x1="-0.6" y1="110.12" x2="77.9" y2="110.12"/><line class="cls-8" x1="-0.6" y1="127.69" x2="77.9" y2="127.69"/><line class="cls-8" x1="-0.6" y1="145.27" x2="77.9" y2="145.27"/><line class="cls-8" x1="33.46" y1="92.42" x2="33.46" y2="110.12"/><line class="cls-8" x1="69.78" y1="92.42" x2="69.78" y2="110.12"/><line class="cls-8" x1="14.72" y1="110" x2="14.72" y2="127.69"/><line class="cls-8" x1="51.04" y1="110" x2="51.04" y2="127.69"/><line class="cls-8" x1="33.46" y1="127.57" x2="33.46" y2="145.27"/><line class="cls-8" x1="69.78" y1="127.57" x2="69.78" y2="145.27"/><line class="cls-8" x1="14.72" y1="145.15" x2="14.72" y2="162.84"/><line class="cls-8" x1="51.04" y1="145.15" x2="51.04" y2="162.84"/><line class="cls-8" x1="13.54" y1="73.68" x2="13.54" y2="91.37"/><line class="cls-8" x1="49.87" y1="73.68" x2="49.87" y2="91.37"/></g></g></svg>