<svg id="Layer_1" data-name="Layer 1" xmlns="http://www.w3.org/2000/svg" viewBox="0 0 160 160"><defs><style>.cls-1{fill:#1e90ff;}.cls-2{fill:#f2f2f2;}.cls-3{fill:none;stroke:#f2f2f2;stroke-miterlimit:10;}</style></defs><rect class="cls-1" x="20" y="20" width="120" height="120" rx="16.05"/><polygon class="cls-2" points="100.77 60.79 82.93 82.96 77.85 77.87 77.42 78.01 100.77 60.79"/><path class="cls-2" d="M79.9,126.56a46.4,46.4,0,1,1,46.4-46.4A46.39,46.39,0,0,1,79.9,126.56ZM40.05,80.16A39.85,39.85,0,1,0,79.9,40.31,39.85,39.85,0,0,0,40.05,80.16Z"/><circle class="cls-3" cx="79.9" cy="80.16" r="46.4" transform="translate(-33.28 79.98) rotate(-45)"/><path class="cls-3" d="M119.75,80.16A39.85,39.85,0,1,1,79.9,40.31,39.85,39.85,0,0,1,119.75,80.16Z"/><polygon class="cls-3" points="82.93 82.96 82.68 83.27 60.21 101.35 77.42 78.01 100.77 60.79 82.93 82.96"/><polyline class="cls-3" points="77.85 77.87 82.93 82.96 83.1 83.13"/></svg>