<svg id="Layer_1" data-name="Layer 1" xmlns="http://www.w3.org/2000/svg" viewBox="0 0 100 100"><defs><style>.cls-1{fill:#1e90ff;}.cls-2{fill:#fff;}.cls-3{fill:none;stroke:#1e90ff;stroke-miterlimit:10;stroke-width:2px;}</style></defs><title>Measurement_pressed</title><path class="cls-1" d="M50,3.6A46.4,46.4,0,1,1,3.6,50,46.4,46.4,0,0,1,50,3.6ZM89.85,50A39.85,39.85,0,1,0,50,89.85,39.85,39.85,0,0,0,89.85,50Z"/><path class="cls-2" d="M53,52.79,70.87,30.63,47.52,47.84,30.31,71.19,52.78,53.1ZM50,10.15A39.85,39.85,0,1,1,10.16,50,39.85,39.85,0,0,1,50,10.15Z"/><polygon class="cls-1" points="70.87 30.63 53.03 52.79 47.95 47.7 47.52 47.84 70.87 30.63"/><polygon class="cls-2" points="47.95 47.7 53.03 52.79 52.78 53.1 30.31 71.19 47.52 47.84 47.95 47.7"/><path class="cls-3" d="M96.4,50A46.4,46.4,0,1,1,50,3.6,46.4,46.4,0,0,1,96.4,50Z"/><path class="cls-3" d="M89.85,50A39.85,39.85,0,1,1,50,10.15,39.85,39.85,0,0,1,89.85,50Z"/><polygon class="cls-3" points="53.03 52.79 52.78 53.1 30.31 71.19 47.52 47.84 70.87 30.63 53.03 52.79"/><polyline class="cls-3" points="47.95 47.7 53.03 52.79 53.21 52.96"/></svg>