<svg id="Layer_1" data-name="Layer 1" xmlns="http://www.w3.org/2000/svg" viewBox="0 0 160 160"><defs><style>.cls-1{fill:none;stroke:#000;stroke-miterlimit:10;}</style></defs><path d="M79.87,25.5A54.72,54.72,0,1,1,25.15,80.21,54.72,54.72,0,0,1,79.87,25.5Zm47,54.71a47,47,0,1,0-47,47A47,47,0,0,0,126.86,80.21Z"/><polygon points="104.47 57.38 83.44 83.51 77.44 77.52 76.94 77.67 104.47 57.38"/><circle class="cls-1" cx="79.86" cy="80.21" r="54.71" transform="translate(-33.33 79.97) rotate(-45)"/><path class="cls-1" d="M126.86,80.21a47,47,0,1,1-47-47A47,47,0,0,1,126.86,80.21Z"/><polygon class="cls-1" points="83.44 83.51 83.14 83.88 56.65 105.2 76.94 77.67 104.47 57.38 83.44 83.51"/><polyline class="cls-1" points="77.44 77.52 83.44 83.51 83.64 83.72"/></svg>