<svg id="Layer_1" data-name="Layer 1" xmlns="http://www.w3.org/2000/svg" viewBox="0 0 160 160"><defs><style>.cls-1{fill:#231f20;}.cls-2{fill:none;stroke:#231f20;stroke-linecap:round;stroke-miterlimit:10;stroke-width:2px;}</style></defs><path class="cls-1" d="M79.78,55.09c-5.93,0-23.73,10.68-23.73,15.43,0,4.11-.27,24.73-.27,27.47s18.07,13.25,24.66,13.71c5.27.36,24.26-12.7,24.67-17.82.67-8.31,2.52-23.81-1.6-29.29C103.51,64.59,86.9,55.09,79.78,55.09Z"/><path class="cls-2" d="M25.78,94.85a40.86,40.86,0,0,0,11.28-6.53c4.35-3.48,6-4.84,13.65-16"/><path class="cls-2" d="M21,105.53s10.68-1.19,19-1.19,17.8,1.19,20.17,2.38"/><path class="cls-2" d="M94.61,54.5s30.86,2.37,35.61,1.19"/><path class="cls-2" d="M110,92.47s2.37-9.49,8.31-16.61S135,64,135,64"/></svg>