<svg id="Layer_1" data-name="Layer 1" xmlns="http://www.w3.org/2000/svg" viewBox="0 0 160 160"><defs><style>.cls-1{fill:none;stroke:#000;stroke-miterlimit:10;stroke-width:4px;}</style></defs><path d="M86.82,54.84A31.21,31.21,0,1,1,55.67,86.05,31.17,31.17,0,0,1,86.82,54.84Zm25.39,31.21a25.39,25.39,0,1,0-25.39,25.43A25.41,25.41,0,0,0,112.21,86.05Z"/><path class="cls-1" d="M110,47.91h23.57a8.64,8.64,0,0,1,8.65,8.64v61.3a8.65,8.65,0,0,1-8.65,8.65H27.2a8.66,8.66,0,0,1-8.66-8.65V56.55a8.65,8.65,0,0,1,8.66-8.64H63.66"/><ellipse class="cls-1" cx="86.82" cy="86.05" rx="31.16" ry="31.21"/><polyline class="cls-1" points="59.71 51.95 63.66 47.91 73.84 37.5 99.81 37.5 110 47.91 113.97 51.95"/></svg>