<svg id="Layer_1" data-name="Layer 1" xmlns="http://www.w3.org/2000/svg" viewBox="0 0 100 100"><defs><style>.cls-1{fill:#fff;}.cls-2{fill:gray;}.cls-3{fill:none;stroke:gray;stroke-miterlimit:10;stroke-width:2px;}</style></defs><title>Photo</title><path class="cls-1" d="M95.67,32.91V74.17a6.14,6.14,0,0,1-6.14,6.15H10.46a6.14,6.14,0,0,1-6.13-6.15V32.91a6.14,6.14,0,0,1,6.13-6.14H42.07l-2.7,2.76h37l-2.7-2.76H89.53A6.14,6.14,0,0,1,95.67,32.91ZM79.13,52.76A21.26,21.26,0,1,0,57.87,74,21.26,21.26,0,0,0,79.13,52.76Z"/><polygon class="cls-1" points="73.69 26.77 76.39 29.53 39.37 29.53 42.07 26.77 73.69 26.77"/><polygon class="cls-1" points="73.69 26.77 42.07 26.77 49.02 19.68 66.73 19.68 73.69 26.77"/><path class="cls-2" d="M57.87,31.5A21.26,21.26,0,1,1,36.61,52.76,21.26,21.26,0,0,1,57.87,31.5ZM75.2,52.76A17.33,17.33,0,1,0,57.87,70.08,17.33,17.33,0,0,0,75.2,52.76Z"/><circle class="cls-1" cx="57.87" cy="52.76" r="17.32"/><path class="cls-3" d="M73.69,26.77H89.53a6.14,6.14,0,0,1,6.14,6.14V74.17a6.14,6.14,0,0,1-6.14,6.15H10.46a6.14,6.14,0,0,1-6.13-6.15V32.91a6.14,6.14,0,0,1,6.13-6.14H42.07"/><circle class="cls-3" cx="57.87" cy="52.76" r="21.26"/><circle class="cls-3" cx="57.87" cy="52.76" r="17.32"/><polyline class="cls-3" points="39.37 29.53 42.07 26.77 49.02 19.68 66.73 19.68 73.69 26.77 76.39 29.53"/></svg>