<svg id="Layer_1" data-name="Layer 1" xmlns="http://www.w3.org/2000/svg" viewBox="0 0 160 160"><defs><style>.cls-1{fill:#fff;}.cls-2{fill:none;stroke:#000;stroke-miterlimit:10;stroke-width:4px;}</style></defs><rect class="cls-1" x="20" y="20" width="120" height="120" rx="16.05"/><path class="cls-1" d="M126.18,58.81v41.27a6.14,6.14,0,0,1-6.13,6.14H41a6.14,6.14,0,0,1-6.14-6.14V58.81A6.14,6.14,0,0,1,41,52.67h31.6l-2.7,2.76h37l-2.7-2.76h15.85A6.14,6.14,0,0,1,126.18,58.81ZM109.64,78.66A21.26,21.26,0,1,0,88.38,99.92,21.25,21.25,0,0,0,109.64,78.66Z"/><polygon class="cls-1" points="104.19 52.67 106.9 55.43 69.88 55.43 72.58 52.67 104.19 52.67"/><polygon class="cls-1" points="97.24 45.59 104.19 52.67 72.58 52.67 79.53 45.59 97.24 45.59"/><path d="M88.38,57.4A21.26,21.26,0,1,1,67.12,78.66,21.25,21.25,0,0,1,88.38,57.4Zm17.33,21.26A17.33,17.33,0,1,0,88.38,96,17.32,17.32,0,0,0,105.71,78.66Z"/><circle class="cls-1" cx="88.38" cy="78.66" r="17.32"/><path class="cls-2" d="M104.2,52.67h15.85a6.14,6.14,0,0,1,6.13,6.14v41.27a6.14,6.14,0,0,1-6.13,6.14H41a6.14,6.14,0,0,1-6.14-6.14V58.81A6.14,6.14,0,0,1,41,52.67h31.6"/><circle class="cls-2" cx="88.38" cy="78.66" r="21.26"/><polyline class="cls-2" points="69.88 55.43 72.58 52.67 79.53 45.59 97.24 45.59 104.19 52.67 106.9 55.43"/></svg>