<svg id="Layer_1" data-name="Layer 1" xmlns="http://www.w3.org/2000/svg" viewBox="0 0 100 100"><defs><style>.cls-1{fill:#1e90ff;}.cls-2{fill:none;stroke:blue;stroke-miterlimit:10;}</style></defs><title>Point_pressed</title><path class="cls-1" d="M50,18.2A20.8,20.8,0,0,1,70.8,39C70.8,50.49,50,81.4,50,81.4S29.2,50.49,29.2,39A20.8,20.8,0,0,1,50,18.2ZM58.8,39A8.8,8.8,0,1,0,50,47.8,8.8,8.8,0,0,0,58.8,39Z"/><path class="cls-2" d="M70.8,39C70.8,50.49,50,81.4,50,81.4S29.2,50.49,29.2,39a20.8,20.8,0,1,1,41.6,0Z"/><circle class="cls-2" cx="50" cy="39" r="8.8"/></svg>