<svg id="Layer_1" data-name="Layer 1" xmlns="http://www.w3.org/2000/svg" viewBox="0 0 160 160"><defs><style>.cls-1{fill:none;stroke:#000;stroke-miterlimit:10;}</style></defs><polygon points="75 37.65 106.17 134.3 97.65 137.05 66.47 40.4 75 37.65"/><path d="M93,20.53l3.3,10.24L75.43,37.51l-.43.14L66.47,40.4S41.74,48.37,39,54.29,37.1,39.82,61.46,30.71,93,20.53,93,20.53Z"/><polyline class="cls-1" points="75 37.65 106.17 134.3 97.65 137.05 66.47 40.4"/><path class="cls-1" d="M66.47,40.4S41.74,48.37,39,54.29,37.1,39.82,61.46,30.71,93,20.53,93,20.53l3.3,10.24L75.43,37.51"/><polyline class="cls-1" points="75.43 37.51 75 37.65 66.47 40.4"/></svg>