<svg id="Layer_1" data-name="Layer 1" xmlns="http://www.w3.org/2000/svg" viewBox="0 0 160 160"><defs><style>.cls-1{fill:#1e90ff;}.cls-2{fill:#f2f2f2;}.cls-3{fill:none;stroke:#f2f2f2;stroke-miterlimit:10;}</style></defs><rect class="cls-1" x="20" y="20" width="120" height="120" rx="16.05"/><rect class="cls-2" x="81.46" y="45.22" width="7.14" height="81" transform="translate(-22.2 30.24) rotate(-17.87)"/><path class="cls-2" d="M90.38,32.43,93,40.59,76.35,46l-.34.1-6.81,2.2s-19.72,6.36-22,11.08-1.47-11.54,18-18.81S90.38,32.43,90.38,32.43Z"/><polyline class="cls-3" points="76.01 46.07 100.87 123.16 94.07 125.36 69.2 48.27"/><path class="cls-3" d="M69.2,48.27s-19.72,6.36-22,11.08-1.47-11.54,18-18.81,25.17-8.11,25.17-8.11L93,40.59,76.35,46"/><polyline class="cls-3" points="76.35 45.97 76.01 46.07 69.2 48.27"/></svg>