<svg id="Layer_1" data-name="Layer 1" xmlns="http://www.w3.org/2000/svg" viewBox="0 0 100 100"><defs><style>.cls-1{fill:#1e90ff;}.cls-2{fill:none;stroke:#1e90ff;stroke-miterlimit:10;}</style></defs><path class="cls-1" d="M74.75,23.67a20.63,20.63,0,1,1-29.16.69A20.62,20.62,0,0,1,74.75,23.67Zm-3.64,25a14.64,14.64,0,1,0-20.7.49A14.64,14.64,0,0,0,71.11,48.7Z"/><polygon class="cls-1" points="48.68 55.82 23.88 81.83 19.06 77.23 43.87 51.23 46.27 53.53 48.68 55.82"/><circle class="cls-2" cx="60.51" cy="38.6" r="20.63"/><circle class="cls-2" cx="60.51" cy="38.6" r="14.64"/><polygon class="cls-2" points="23.88 81.83 19.06 77.23 43.87 51.23 46.27 53.53 48.68 55.82 23.88 81.83"/></svg>