<svg id="Layer_1" data-name="Layer 1" xmlns="http://www.w3.org/2000/svg" xmlns:xlink="http://www.w3.org/1999/xlink" viewBox="0 0 160 160"><defs><style>.cls-1,.cls-6{fill:none;}.cls-2{clip-path:url(#clip-path);}.cls-3{fill:#231f20;stroke:#231f20;}.cls-3,.cls-6{stroke-miterlimit:10;}.cls-4{fill:#fff;}.cls-5{clip-path:url(#clip-path-2);}.cls-6{stroke:#fff;stroke-width:2px;}</style><clipPath id="clip-path"><rect class="cls-1" x="27.06" y="26.5" width="106.86" height="106.86"/></clipPath><clipPath id="clip-path-2"><rect class="cls-1" x="195.45" y="45.77" width="132.22" height="32.43"/></clipPath></defs><g class="cls-2"><rect class="cls-3" x="26.67" y="26.11" width="107.25" height="107.25"/><path class="cls-4" d="M49.65,41.27s19.11-3.48,22.59,4.34,13.9,16.51,7.82,20.85S58.34,78.63,57.47,81.23,45.31,85.58,40.09,79.5s-8.68-13-2.6-20,1.74-13,3.47-15.63S49.65,41.27,49.65,41.27Z"/><path class="cls-4" d="M50.55,37.84s-11.78,15.45-19.61,12S9.54,47,11.1,39.73,19,16.11,17.83,13.6s6.05-11.41,14-10.43,15.2,3.76,15.39,13,7.5,10.79,8,13.89S50.55,37.84,50.55,37.84Z"/><path class="cls-4" d="M96.22,133.36s-11-9.56-6.6-18.24,20.85-17.38,27.8-14.77,16.24,20.29,16.24,20.29,8.08,14.46,2,21.41S96.22,133.36,96.22,133.36Z"/><path class="cls-4" d="M26.72,154.21S15.77,144.66,20.11,136,41,118.59,47.91,121.2s16.25,20.29,16.25,20.29,8.08,14.46,2,21.41S26.72,154.21,26.72,154.21Z"/><path class="cls-4" d="M145.05,26.43s12.17,8,9.07,17.15-18.24,20.1-25.49,18.48-18.9-17.84-18.9-17.84-10-13.21-4.94-20.93S145.05,26.43,145.05,26.43Z"/><path class="cls-4" d="M94,48.22S82.87,54.4,81.9,62.61,84.4,73.41,87,76.89s6.08,17.38,16.51,13,33-12.16,25.19-24.32S100,43.88,94,48.22Z"/><path class="cls-4" d="M86.88,5.14s-12.6-1.6-18.24,4.43-4.39,10.19-4.35,14.54-5.41,17.6,5.57,20.28,33.79,9.77,34.71-4.66S94.35,5.24,86.88,5.14Z"/><path class="cls-4" d="M32.27,96.87c0-6.26,1.78-12,20-13.4s37.18,1.82,45.51,7.18,3.86,12.07-6.5,21.74-35.56,21-41.64,8.81S32.27,104.69,32.27,96.87Z"/><path class="cls-4" d="M17.51,94.27s11.29-8.69,14.76,2.6,12.42,20.22,4.48,25.75-10.56,14.22-20.11,8.13S17.51,94.27,17.51,94.27Z"/><path class="cls-4" d="M21.85,48.22s12.59,6.91,12.38,18.66-7.17,23.91-15.86,21.3S21.85,48.22,21.85,48.22Z"/><path class="cls-4" d="M140,69.94c-.81-.31-7.19-1.38-12.28,6.69s-8.89,24.16-1.34,32.63,25.79,12.81,33.61,1.51S151.3,74.28,140,69.94Z"/></g><g class="cls-5"><path class="cls-6" d="M107.14,70.75s16.36-1.37,49.79-10.34c30.29-8.12,38.31-24.84,38.31-24.84"/><path class="cls-6" d="M124.87,79.48s16.36-1.36,49.79-10.33C205,61,213,44.3,213,44.3"/><path class="cls-6" d="M158.87,79.48s16.35-1.36,49.78-10.33C239,61,247,44.3,247,44.3"/></g></svg>