<svg id="Layer_1" data-name="Layer 1" xmlns="http://www.w3.org/2000/svg" viewBox="0 0 160 160"><defs><style>.cls-1{fill:#231f20;stroke:#231f20;stroke-miterlimit:10;}.cls-2{fill:#fff;}</style></defs><path class="cls-1" d="M116,66.87S144.73,76,140.82,87.73,123.87,115.11,120,116.42s-24.77-13-24.77-13,10.43-6.52,13-15.65,0-26.07,0-26.07Z"/><path class="cls-1" d="M110.83,78.61s-30-5.22-49.55,0-40.42,22.16-40.42,22.16S57.32,82,67.8,81.21c17-1.3,43,2.61,43,2.61Z"/><rect class="cls-2" x="114.74" y="81.21" width="9.13" height="9.13" rx="3.99"/><path class="cls-1" d="M101.7,76S99.09,64.26,91.27,56.44,71.71,44.71,71.71,44.71s17,9.12,19.56,15.64,6.52,18.26,6.52,18.26Z"/><path class="cls-1" d="M88.66,77.3s-2.6-11.73-10.43-19.56S58.67,46,58.67,46s17,9.13,19.56,15.65,6.52,18.25,6.52,18.25Z"/><path class="cls-1" d="M76.93,77.75s-2.16-9.69-8.62-16.15-16.15-9.69-16.15-9.69,14,7.53,16.15,12.92S73.7,79.91,73.7,79.91Z"/><path class="cls-1" d="M63.89,80.93S62.3,73.79,57.54,69s-11.9-7.14-11.9-7.14S56,67.44,57.54,71.41s4,11.11,4,11.11Z"/><path class="cls-1" d="M50.85,85.32a19.05,19.05,0,0,0-4.41-8.27,24.15,24.15,0,0,0-8.28-5s7.18,3.86,8.28,6.62,2.76,7.72,2.76,7.72Z"/><path class="cls-1" d="M99.09,79.91s-6.52,18.25-13,23.47S67.8,113.81,67.8,113.81s17-9.13,20.86-15.65,6.52-18.25,6.52-18.25Z"/><path class="cls-1" d="M88.66,78.61s-6.52,18.25-13,23.46S57.37,112.5,57.37,112.5s16.95-9.12,20.86-15.64,6.52-18.25,6.52-18.25Z"/><path class="cls-1" d="M76.93,78.61s-4.35,12.16-8.69,15.64-12.17,7-12.17,7S67.37,95.12,70,90.77s4.35-12.16,4.35-12.16Z"/><path class="cls-1" d="M65.19,79.91s-3.51,9.83-7,12.64-9.83,5.61-9.83,5.61,9.13-4.91,11.24-8.42,3.51-9.83,3.51-9.83Z"/></svg>