<svg id="Layer_1" data-name="Layer 1" xmlns="http://www.w3.org/2000/svg" viewBox="0 0 160 160"><defs><style>.cls-1{fill:#231f20;}.cls-2{fill:none;stroke:#fff;stroke-miterlimit:10;}</style></defs><path class="cls-1" d="M50.57,77.5c-3.36-7.59,1.36-27.3,4.09-31.4s45.06-5.46,50.52,0,4.71,31.55,4.09,32.77c-1.36,2.73-15,12.29-28.67,12.29S51.8,80.29,50.57,77.5Z"/><path class="cls-2" d="M62.86,55.25s6.82,1,9.55,2.87,2.73,5.73,8.19,5.73,5.47-3.82,8.2-5.73,10.92-3.83,10.92-3.83"/><path class="cls-1" d="M47.84,66.58A105,105,0,0,1,34.19,68c-5.47,0-12.29-2.73-12.29-2.73s-4.1-2.74-6.83,0,0,13.65,10.92,25.94S57.4,119.83,80.6,119.83c24.58,0,49.15-20.48,54.61-27.31s15-25.94,10.93-28.67-4.1,0-9.56,1.37S112,66.58,112,66.58s1.8,12.32.44,15-16.82,15-33.2,13.62S50.54,83,47.81,78.87,47.84,66.58,47.84,66.58Z"/></svg>