<svg id="Layer_1" data-name="Layer 1" xmlns="http://www.w3.org/2000/svg" xmlns:xlink="http://www.w3.org/1999/xlink" viewBox="0 0 160 160"><defs><style>.cls-1,.cls-2{fill:none;}.cls-2{stroke:#231f20;stroke-miterlimit:10;stroke-width:3px;}.cls-3{clip-path:url(#clip-path);}.cls-4{fill:#231f20;}.cls-5{clip-path:url(#clip-path-2);}.cls-6{clip-path:url(#clip-path-3);}.cls-7{clip-path:url(#clip-path-4);}</style><clipPath id="clip-path"><rect class="cls-1" x="19.6" y="19.55" width="120.77" height="120.77" rx="16.05"/></clipPath><clipPath id="clip-path-2"><rect class="cls-2" x="80.35" y="80.5" width="88.71" height="87.99"/></clipPath><clipPath id="clip-path-3"><rect class="cls-2" x="80.11" y="-16.5" width="96.07" height="97.5"/></clipPath><clipPath id="clip-path-4"><rect class="cls-2" x="-17.36" y="81" width="97.5" height="97.5"/></clipPath></defs><g class="cls-3"><circle class="cls-4" cx="15.25" cy="24.86" r="3.23"/><circle class="cls-4" cx="25.3" cy="29.93" r="3.23"/><circle class="cls-4" cx="37.13" cy="19.18" r="3.23"/><circle class="cls-4" cx="49.49" cy="24.58" r="3.23"/><circle class="cls-4" cx="60.78" cy="35.87" r="3.23"/><circle class="cls-4" cx="72.6" cy="31.01" r="3.23"/><circle class="cls-4" cx="4.2" cy="33.37" r="3.23"/><circle class="cls-4" cx="15.49" cy="44.66" r="3.23"/><circle class="cls-4" cx="41.05" cy="33.91" r="3.23"/><circle class="cls-4" cx="18.09" cy="61.87" r="3.23"/><circle class="cls-4" cx="5.72" cy="73.16" r="3.23"/><circle class="cls-4" cx="49.49" cy="47.16" r="3.23"/><circle class="cls-4" cx="39.68" cy="45.2" r="3.23"/><circle class="cls-4" cx="54.89" cy="62.37" r="3.23"/><circle class="cls-4" cx="66.72" cy="51.62" r="3.23"/><circle class="cls-4" cx="66.67" cy="60.41" r="3.23"/><circle class="cls-4" cx="76.01" cy="48.42" r="3.23"/><circle class="cls-4" cx="4.2" cy="55.95" r="3.23"/><circle class="cls-4" cx="25.3" cy="75.09" r="3.23"/><circle class="cls-4" cx="37.13" cy="64.34" r="3.23"/><circle class="cls-4" cx="49.49" cy="74.55" r="3.23"/><circle class="cls-4" cx="72.6" cy="75.09" r="3.23"/><circle class="cls-4" cx="27.46" cy="51.54" r="3.23"/><circle class="cls-4" cx="49.49" cy="7.89" r="3.23"/><circle class="cls-4" cx="39.68" cy="5.93" r="3.23"/><circle class="cls-4" cx="60.78" cy="19.18" r="3.23"/><circle class="cls-4" cx="72.55" cy="15.26" r="3.23"/><circle class="cls-4" cx="62.79" cy="8.43" r="3.23"/><circle class="cls-4" cx="3.26" cy="7.89" r="3.23"/><circle class="cls-4" cx="24.41" cy="16.28" r="3.23"/><g class="cls-5"><line class="cls-2" x1="84.33" y1="89.69" x2="116.11" y2="89.69"/><line class="cls-2" x1="129.35" y1="89.69" x2="161.13" y2="89.69"/><line class="cls-2" x1="117.43" y1="104.14" x2="149.21" y2="104.14"/><line class="cls-2" x1="83" y1="102.83" x2="114.78" y2="102.83"/><line class="cls-2" x1="83" y1="118.59" x2="114.78" y2="118.59"/><line class="cls-2" x1="121.4" y1="118.59" x2="153.18" y2="118.59"/><line class="cls-2" x1="157.15" y1="118.59" x2="188.93" y2="118.59"/><line class="cls-2" x1="69.76" y1="134.35" x2="101.54" y2="134.35"/><line class="cls-2" x1="106.84" y1="134.35" x2="138.62" y2="134.35"/><line class="cls-2" x1="142.59" y1="140.91" x2="174.37" y2="140.91"/><line class="cls-2" x1="120.08" y1="147.48" x2="151.86" y2="147.48"/><line class="cls-2" x1="79.03" y1="147.48" x2="110.81" y2="147.48"/><line class="cls-2" x1="93.6" y1="159.3" x2="125.37" y2="159.3"/><line class="cls-2" x1="134.64" y1="159.3" x2="166.42" y2="159.3"/></g><rect class="cls-2" x="80.35" y="80.5" width="88.71" height="87.99"/><g class="cls-6"><line class="cls-2" x1="80.11" y1="17.91" x2="176.18" y2="17.91"/><line class="cls-2" x1="80.11" y1="39.42" x2="176.18" y2="39.42"/><line class="cls-2" x1="80.11" y1="60.93" x2="176.18" y2="60.93"/><line class="cls-2" x1="108.91" y1="-3.74" x2="94.67" y2="17.91"/><line class="cls-2" x1="154.8" y1="-3.74" x2="140.55" y2="17.91"/><line class="cls-2" x1="123.25" y1="17.77" x2="109.01" y2="39.42"/><line class="cls-2" x1="167.7" y1="17.77" x2="153.45" y2="39.42"/><line class="cls-2" x1="84.54" y1="39.27" x2="75.31" y2="52.32"/><line class="cls-2" x1="128.99" y1="39.27" x2="114.74" y2="60.93"/><line class="cls-2" x1="97.44" y1="60.78" x2="83.2" y2="82.43"/><line class="cls-2" x1="141.89" y1="60.78" x2="127.65" y2="82.43"/></g><rect class="cls-2" x="80.11" y="-16.5" width="96.07" height="97.5"/><g class="cls-7"><line class="cls-2" x1="-17.36" y1="93.95" x2="80.14" y2="93.95"/><line class="cls-2" x1="-17.36" y1="115.92" x2="80.14" y2="115.92"/><line class="cls-2" x1="-17.36" y1="137.75" x2="80.14" y2="137.75"/><line class="cls-2" x1="-17.36" y1="159.58" x2="80.14" y2="159.58"/><line class="cls-2" x1="24.95" y1="93.95" x2="24.95" y2="115.92"/><line class="cls-2" x1="70.06" y1="93.95" x2="70.06" y2="115.92"/><line class="cls-2" x1="1.66" y1="115.78" x2="1.66" y2="137.75"/><line class="cls-2" x1="46.77" y1="115.78" x2="46.77" y2="137.75"/><line class="cls-2" x1="24.95" y1="137.6" x2="24.95" y2="159.58"/><line class="cls-2" x1="70.06" y1="137.6" x2="70.06" y2="159.58"/><line class="cls-2" x1="1.66" y1="159.43" x2="1.66" y2="181.41"/><line class="cls-2" x1="46.77" y1="159.43" x2="46.77" y2="181.41"/><line class="cls-2" x1="0.21" y1="70.66" x2="0.21" y2="92.64"/><line class="cls-2" x1="45.32" y1="70.66" x2="45.32" y2="92.64"/></g><rect class="cls-2" x="-17.36" y="81" width="97.5" height="97.5"/></g></svg>