<svg id="Layer_1" data-name="Layer 1" xmlns="http://www.w3.org/2000/svg" xmlns:xlink="http://www.w3.org/1999/xlink" viewBox="0 0 160 160"><defs><style>.cls-1,.cls-2,.cls-4{fill:none;}.cls-2{stroke:#fff;}.cls-2,.cls-4,.cls-7{stroke-miterlimit:10;}.cls-2,.cls-4{stroke-width:2px;}.cls-3{clip-path:url(#clip-path);}.cls-4{stroke:#1e90ff;}.cls-5{clip-path:url(#clip-path-2);}.cls-6{fill:#fff;}.cls-7{fill:#231f20;stroke:#231f20;}.cls-8{clip-path:url(#clip-path-3);}</style><clipPath id="clip-path"><rect class="cls-1" x="214.33" y="19.55" width="120.77" height="120.77" rx="16"/></clipPath><clipPath id="clip-path-2"><rect class="cls-2" x="19.33" y="19.55" width="120.77" height="120.77" rx="16"/></clipPath><clipPath id="clip-path-3"><rect class="cls-1" x="28.5" y="53.5" width="106" height="26"/></clipPath></defs><g class="cls-3"><path class="cls-4" d="M152.71,73.53s13.11-1.1,39.91-8.29c24.29-6.51,30.72-19.92,30.72-19.92"/></g><g class="cls-5"><rect class="cls-6" x="18.89" y="19.1" width="121.21" height="121.21"/><rect class="cls-7" x="28.03" y="83.88" width="93.47" height="12.05"/><rect class="cls-7" x="28.03" y="53.29" width="106.47" height="26.06"/><rect class="cls-7" x="28.03" y="100.1" width="75.66" height="8.04"/><g class="cls-8"><path class="cls-2" d="M31.16,80.53s13.12-1.1,39.92-8.29c24.28-6.51,30.71-19.92,30.71-19.92"/><path class="cls-2" d="M58.41,80.53s13.12-1.1,39.92-8.29C122.61,65.73,129,52.32,129,52.32"/><path class="cls-2" d="M86.53,81s13.12-1.1,39.92-8.29c24.28-6.51,30.71-19.92,30.71-19.92"/><path class="cls-2" d="M-42.29,73.53s13.11-1.1,39.91-8.29c24.29-6.51,30.72-19.92,30.72-19.92"/><path class="cls-2" d="M-28.08,80.53s13.12-1.1,39.92-8.29c24.29-6.51,30.71-19.92,30.71-19.92"/><path class="cls-2" d="M-.83,80.53s13.12-1.1,39.92-8.29C63.38,65.73,69.8,52.32,69.8,52.32"/></g></g><rect class="cls-2" x="19.33" y="19.55" width="120.77" height="120.77" rx="16"/></svg>