<svg id="Layer_1" data-name="Layer 1" xmlns="http://www.w3.org/2000/svg" xmlns:xlink="http://www.w3.org/1999/xlink" viewBox="0 0 160 160"><defs><style>.cls-1,.cls-5,.cls-6{fill:none;}.cls-2{clip-path:url(#clip-path);}.cls-3{fill:#686868;}.cls-4{fill:#f2f2f2;stroke:#f2f2f2;}.cls-4,.cls-5,.cls-6{stroke-miterlimit:10;}.cls-5,.cls-6{stroke:#686868;}.cls-5{stroke-width:2px;}</style><clipPath id="clip-path"><rect class="cls-1" x="19.33" y="19.55" width="120.77" height="120.77" rx="16"/></clipPath></defs><g class="cls-2"><rect class="cls-3" x="18.89" y="19.1" width="121.21" height="121.21"/><rect class="cls-4" x="27.82" y="83.69" width="90.97" height="11.73"/><rect class="cls-4" x="27.82" y="53.91" width="103.62" height="25.36"/><rect class="cls-4" x="27.82" y="99.48" width="73.65" height="7.82"/><path class="cls-5" d="M30.86,80.43s12.77-1.07,38.85-8.07C93.35,66,99.61,53,99.61,53"/><path class="cls-5" d="M57.39,80.43s12.76-1.07,38.85-8.07C119.88,66,126.13,53,126.13,53"/><path class="cls-5" d="M84.76,80.91s12.76-1.06,38.84-8.06c23.64-6.34,29.9-19.39,29.9-19.39"/><path class="cls-6" d="M-40.63,73.61s12.76-1.06,38.85-8.06c23.64-6.34,29.89-19.39,29.89-19.39"/><path class="cls-5" d="M-26.79,80.43S-14,79.36,12.05,72.36C35.69,66,42,53,42,53"/><path class="cls-5" d="M-.27,80.43s12.76-1.07,38.85-8.07C62.22,66,68.47,53,68.47,53"/></g></svg>