<svg id="Layer_1" data-name="Layer 1" xmlns="http://www.w3.org/2000/svg" xmlns:xlink="http://www.w3.org/1999/xlink" viewBox="0 0 160 160"><defs><style>.cls-1,.cls-4{fill:none;}.cls-2{fill:#231f20;stroke:#231f20;}.cls-2,.cls-4{stroke-miterlimit:10;}.cls-3{clip-path:url(#clip-path);}.cls-4{stroke:#fff;stroke-width:2px;}</style><clipPath id="clip-path"><rect class="cls-1" x="15.45" y="46.77" width="132.22" height="32.43"/></clipPath></defs><rect class="cls-2" x="14.86" y="84.66" width="116.59" height="15.03"/><rect class="cls-2" x="14.86" y="46.5" width="132.81" height="32.51"/><rect class="cls-2" x="14.86" y="104.9" width="94.38" height="10.02"/><g class="cls-3"><path class="cls-4" d="M18.77,80.48s16.36-1.36,49.79-10.33C98.85,62,106.87,45.3,106.87,45.3"/><path class="cls-4" d="M52.76,80.48s16.36-1.36,49.79-10.33C132.84,62,140.86,45.3,140.86,45.3"/><path class="cls-4" d="M87.84,81.11s16.35-1.37,49.78-10.34c30.3-8.13,38.32-24.85,38.32-24.85"/><path class="cls-4" d="M-72.86,71.75s16.36-1.37,49.79-10.34C7.22,53.29,15.24,36.57,15.24,36.57"/><path class="cls-4" d="M-55.13,80.48s16.36-1.36,49.79-10.33C25,62,33,45.3,33,45.3"/><path class="cls-4" d="M-21.13,80.48s16.35-1.36,49.78-10.33C59,62,67,45.3,67,45.3"/></g></svg>