<svg id="Layer_1" data-name="Layer 1" xmlns="http://www.w3.org/2000/svg" viewBox="0 0 100 100"><defs><style>.cls-1{fill:#1e90ff;}.cls-2{fill:#fff;}</style></defs><title>Settings_pressed</title><path class="cls-1" d="M39.06,16.32A41,41,0,0,1,50,14.66V6.8L63.35,8.91,61.2,16.4a36.89,36.89,0,0,1,9.58,5l4.61-6.35L85,24.61,78.22,29.5c1.94,2.8,4.29,6.3,5.4,9.58l7.47-2.43L93.2,50h-8a39.19,39.19,0,0,1-1.58,10.93l7.47,2.42L85,75.39,78.6,70.78l-.22.3a35.62,35.62,0,0,1-7.68,7.58l.1.14L75.39,85l-12,6.14L61.2,83.6A41.81,41.81,0,0,1,50,85.34V93.2L36.65,91.09l2.41-7.4-.26-.09a36.14,36.14,0,0,1-9.58-5L24.61,85l-9.56-9.56,6.21-4.51-.06-.08a37.77,37.77,0,0,1-4.82-9.88L8.91,63.35,6.8,50h7.86a35.16,35.16,0,0,1,1.72-10.92L8.91,36.65l6.14-12,6.21,4.51a39.12,39.12,0,0,1,8-7.72l-4.61-6.35,12-6.14ZM81.42,50A31.42,31.42,0,1,0,50,81.42,31.4,31.4,0,0,0,81.42,50Z"/><path class="cls-2" d="M50,18.58A31.42,31.42,0,1,1,18.58,50,31.4,31.4,0,0,1,50,18.58ZM61.78,50A11.78,11.78,0,1,0,50,61.78,11.77,11.77,0,0,0,61.78,50Z"/><path class="cls-1" d="M50,38.22A11.78,11.78,0,1,1,38.22,50,11.77,11.77,0,0,1,50,38.22ZM57.86,50A7.86,7.86,0,1,0,50,57.86,7.86,7.86,0,0,0,57.86,50Z"/></svg>