<svg id="Layer_1" data-name="Layer 1" xmlns="http://www.w3.org/2000/svg" viewBox="0 0 100 100"><defs><style>.cls-1{fill:gray;}.cls-2{fill:#fff;}.cls-3{fill:none;stroke:gray;stroke-miterlimit:10;}</style></defs><title>Settings</title><path class="cls-1" d="M50,14.66V6.8L63.35,8.91,61.2,16.4a36.89,36.89,0,0,1,9.58,5l4.61-6.35L85,24.61,78.22,29.5c1.94,2.8,4.29,6.3,5.4,9.58l7.47-2.43L93.2,50h-8a39.19,39.19,0,0,1-1.58,10.93l7.47,2.42L85,75.39,78.6,70.78l-.22.3a35.62,35.62,0,0,1-7.68,7.58l.1.14L75.39,85l-12,6.14L61.2,83.6A41.81,41.81,0,0,1,50,85.34V93.2L36.65,91.09l2.41-7.4-.26-.09a36.14,36.14,0,0,1-9.58-5L24.61,85l-9.56-9.56,6.21-4.51-.06-.08a37.77,37.77,0,0,1-4.82-9.88L8.91,63.35,6.8,50h7.86a35.16,35.16,0,0,1,1.72-10.92L8.91,36.65l6.14-12,6.21,4.51a39.12,39.12,0,0,1,8-7.72l-4.61-6.35,12-6.14,2.41,7.41A41,41,0,0,1,50,14.66ZM81.42,50A31.42,31.42,0,1,0,50,81.42,31.4,31.4,0,0,0,81.42,50Z"/><path class="cls-2" d="M50,18.58A31.42,31.42,0,1,1,18.58,50,31.4,31.4,0,0,1,50,18.58ZM61.78,50A11.78,11.78,0,1,0,50,61.78,11.77,11.77,0,0,0,61.78,50Z"/><path class="cls-1" d="M50,38.22A11.78,11.78,0,1,1,38.22,50,11.77,11.77,0,0,1,50,38.22ZM57.86,50A7.86,7.86,0,1,0,50,57.86,7.86,7.86,0,0,0,57.86,50Z"/><path class="cls-3" d="M71.18,21.7c-.13-.11-.27-.2-.4-.3a36.89,36.89,0,0,0-9.58-5"/><path class="cls-3" d="M83.74,39.44c0-.12-.07-.24-.12-.36-1.11-3.28-3.46-6.78-5.4-9.58L78,29.2"/><path class="cls-3" d="M83.42,61.57c.07-.21.14-.43.2-.64A39.19,39.19,0,0,0,85.2,50"/><path class="cls-3" d="M70.41,78.87l.29-.21a35.62,35.62,0,0,0,7.68-7.58"/><path class="cls-3" d="M49.07,85.34H50A41.81,41.81,0,0,0,61.2,83.6"/><path class="cls-3" d="M28.62,78.16l.6.44a36.14,36.14,0,0,0,9.58,5"/><path class="cls-3" d="M16.2,60.37c.06.18.11.37.18.55A37.77,37.77,0,0,0,21.2,70.8"/><path class="cls-3" d="M16.48,38.75c0,.11-.07.22-.1.33A35.16,35.16,0,0,0,14.66,50"/><path class="cls-3" d="M29.73,21l-.51.37a39.12,39.12,0,0,0-8,7.72l-.06.08"/><path class="cls-3" d="M50.65,14.66H50a41,41,0,0,0-10.94,1.66l-.26.08"/><circle class="cls-3" cx="50" cy="50" r="31.42"/><circle class="cls-3" cx="50" cy="50" r="11.78"/><circle class="cls-3" cx="50" cy="50" r="7.86"/><polyline class="cls-3" points="50 85.6 50 93.2 36.65 91.09 39.06 83.69 39.22 83.2"/><polyline class="cls-3" points="70.8 78.8 75.39 84.95 63.35 91.09 61.2 83.6"/><polyline class="cls-3" points="83.24 60.8 83.62 60.93 91.09 63.35 84.95 75.39 78.6 70.78 78.4 70.63"/><polyline class="cls-3" points="83.24 39.2 83.62 39.08 91.09 36.65 93.2 50 85.2 50"/><polyline class="cls-3" points="70.63 21.6 70.78 21.4 75.39 15.05 84.95 24.61 78.22 29.5 78.08 29.6"/><polyline class="cls-3" points="50 14.4 50 6.8 63.35 8.91 61.2 16.4"/><polyline class="cls-3" points="29.6 21.92 29.22 21.4 24.61 15.05 36.65 8.91 39.06 16.32 39.22 16.8"/><polyline class="cls-3" points="16.8 39.22 16.38 39.08 8.91 36.65 15.05 24.61 21.26 29.12 21.92 29.6"/><polyline class="cls-3" points="16.76 60.8 16.38 60.92 8.91 63.35 6.8 50 14.66 50 14.8 50"/><polyline class="cls-3" points="29.37 78.4 29.22 78.6 24.61 84.95 15.05 75.39 21.26 70.88 21.92 70.4"/></svg>