<svg id="Layer_1" data-name="Layer 1" xmlns="http://www.w3.org/2000/svg" viewBox="0 0 100 100"><defs><style>.cls-1,.cls-3{fill:gray;}.cls-2{fill:none;}.cls-2,.cls-3{stroke:gray;stroke-miterlimit:10;stroke-width:2px;}</style></defs><title>Sketch</title><path class="cls-1" d="M14.58,72.81,17,68s.76-.19,1.71.76a2,2,0,0,1,.76,1.71Z"/><path class="cls-1" d="M83.52,12.06l-6.61,6.61s0-1.89-3.15-5c-2.83-2.83-5-3.15-5-3.15l6.61-6.61s2.21.32,5,3.15C83.52,10.17,83.52,12.06,83.52,12.06Z"/><polyline class="cls-2" points="30.63 64.94 19.43 70.43 14.58 72.81 16.96 67.96 22.45 56.76 25.59 56.76 25.59 62.11 30.95 62.11 30.63 64.94"/><polyline class="cls-2" points="83.52 12.06 76.91 18.67 30.63 64.94"/><path class="cls-2" d="M75.33,3.87s2.21.32,5,3.15c3.15,3.15,3.15,5,3.15,5"/><path class="cls-2" d="M68.72,10.48s2.21.32,5,3.15c3.15,3.15,3.15,5,3.15,5"/><polyline class="cls-2" points="22.45 56.76 68.72 10.48 75.33 3.87"/><path class="cls-2" d="M19.43,70.43a2,2,0,0,0-.76-1.71c-1-1-1.71-.76-1.71-.76"/><path class="cls-3" d="M14.23,72.88s-5.6,3.2-5.6,8.8,24-1.6,32,.8,33.6,14.4,44.8,13.6,4-.8-.8-1.6-16-3.2-21.6-5.6-16.8-6.4-21.6-8c-4.62-1.54-24,1.6-29.6.8S14.23,72.88,14.23,72.88Z"/></svg>