<svg id="Layer_1" data-name="Layer 1" xmlns="http://www.w3.org/2000/svg" viewBox="0 0 100 100"><defs><style>.cls-1,.cls-3{fill:#1e90ff;}.cls-2{fill:none;stroke-width:2px;}.cls-2,.cls-3{stroke:#1e90ff;stroke-miterlimit:10;}</style></defs><title>Sketch_pressed</title><path class="cls-1" d="M14.58,73.06,17,68.21s.77-.19,1.72.76a2,2,0,0,1,.76,1.71Z"/><path class="cls-1" d="M83.52,12.3,76.9,18.92s0-1.89-3.14-5c-2.84-2.83-5-3.15-5-3.15l6.61-6.61s2.2.31,5,3.15C83.52,10.42,83.52,12.3,83.52,12.3Z"/><polyline class="cls-2" points="30.63 65.19 19.43 70.68 14.57 73.06 16.95 68.21 22.45 57.01 25.59 57.01 25.59 62.36 30.94 62.36 30.63 65.19"/><polyline class="cls-2" points="83.52 12.3 76.9 18.91 30.63 65.19"/><path class="cls-2" d="M75.33,4.12s2.2.31,5,3.15c3.15,3.15,3.15,5,3.15,5"/><path class="cls-2" d="M68.72,10.73s2.2.32,5,3.15c3.14,3.15,3.14,5,3.14,5"/><polyline class="cls-2" points="22.45 57.01 68.72 10.73 75.33 4.12"/><path class="cls-2" d="M19.43,70.68A2,2,0,0,0,18.67,69c-1-1-1.72-.76-1.72-.76"/><path class="cls-3" d="M14.23,73.13s-5.6,3.2-5.6,8.8,24-1.6,32,.8,33.6,14.4,44.8,13.6,4-.8-.8-1.6-16-3.2-21.6-5.6-16.8-6.4-21.6-8c-4.62-1.54-24,1.6-29.6.8S14.23,73.13,14.23,73.13Z"/></svg>