<svg id="Layer_1" data-name="Layer 1" xmlns="http://www.w3.org/2000/svg" viewBox="0 0 101 101"><defs><style>.cls-1{fill:#1e90ff;}.cls-2{fill:#f2f2f2;}</style></defs><circle class="cls-1" cx="50.5" cy="50.5" r="50.5"/><rect class="cls-2" x="31.54" y="65.75" width="51.46" height="7.8"/><rect class="cls-2" x="31.54" y="54.43" width="43.59" height="7.8"/><rect class="cls-2" x="31.54" y="27.3" width="51.46" height="23.41"/><path class="cls-1" d="M28.62,29.33A14.61,14.61,0,0,1,43.46,43.7c0,7.94-14.84,29.3-14.84,29.3S13.79,51.64,13.79,43.7A14.6,14.6,0,0,1,28.62,29.33Z"/><path class="cls-2" d="M28.62,31.68A12.38,12.38,0,0,1,41,44.06c0,6.83-12.38,25.23-12.38,25.23S16.24,50.89,16.24,44.06A12.38,12.38,0,0,1,28.62,31.68Zm5.24,12.38a5.24,5.24,0,1,0-5.24,5.24A5.25,5.25,0,0,0,33.86,44.06Z"/><circle class="cls-1" cx="28.62" cy="44.06" r="5.24"/><path class="cls-1" d="M29.62,28.53A15.14,15.14,0,0,1,45,43.43C45,51.66,29.62,73.8,29.62,73.8S14.24,51.66,14.24,43.43A15.15,15.15,0,0,1,29.62,28.53Z"/><path class="cls-2" d="M29.62,31.68A12.38,12.38,0,0,1,42,44.06c0,6.83-12.38,25.23-12.38,25.23S17.24,50.89,17.24,44.06A12.38,12.38,0,0,1,29.62,31.68Zm5.24,12.38a5.24,5.24,0,1,0-5.24,5.24A5.25,5.25,0,0,0,34.86,44.06Z"/><circle class="cls-1" cx="29.62" cy="44.06" r="5.24"/></svg>